<?xml version="1.0" encoding="UTF-8" standalone="no"?>
<svg
   viewBox="0 0 500 500"
   version="1.1"
   id="svg10"
   xmlns="http://www.w3.org/2000/svg"
   xmlns:svg="http://www.w3.org/2000/svg">
  <defs
     id="defs14" />
  <path
     fill="#00ce89"
     d="M 0,0 H 500 V 500 H 0 Z"
     id="path2"
     style="fill-rule:evenodd" />
  <path
     fill="#ffffff"
     fill-rule="nonzero"
     d="M 58.9,92.7 V 77.3 H 78 V 73 H 59 V 59 H 78.8 V 54.5 H 53.4 V 92.8 H 59 Z m 38.8,0.6 c 2.3,0 4.2,-0.5 5.8,-1.4 1.5,-0.8 2.9,-2.3 4,-4.5 h 0.1 a 131.4,131.4 0 0 0 0.2,5.3 h 4.8 l -0.1,-6.6 V 62 h -5.1 v 17.8 c 0,3 -0.8,5.4 -2.2,7 a 7.2,7.2 0 0 1 -5.7,2.5 c -2.4,0 -4,-0.6 -5,-1.7 C 93.5,86.5 93,84.4 93,81.5 V 62 h -5 v 20.4 c 0,3.9 0.7,6.7 2.2,8.3 1.6,1.7 4,2.6 7.4,2.6 z M 137,93 a 36,36 0 0 0 9.5,-1.3 V 88 c -3,0.6 -5.9,1 -8.4,1 -1.9,0 -3.2,-0.4 -4,-1.2 -0.8,-0.7 -1.2,-1.8 -1.2,-3.3 V 66 h 12.3 v -4 h -12.3 v -8 h -3.4 l -1.6,8 H 123 v 4 h 4.7 v 19 c 0,2.9 0.8,4.9 2.3,6.2 1.5,1.3 3.8,2 6.9,2 z m 30.4,0.2 c 2.3,0 4.2,-0.5 5.8,-1.4 1.5,-0.8 2.9,-2.3 4,-4.5 h 0.1 l 0.1,3 0.1,1.5 v 0.8 h 4.9 a 61,61 0 0 1 -0.2,-5.8 V 62 H 177 v 17.8 c 0,3 -0.7,5.4 -2.1,7 a 7.2,7.2 0 0 1 -5.8,2.5 c -2.4,0 -4,-0.6 -5,-1.7 -1,-1.1 -1.4,-3.2 -1.4,-6.1 V 62 h -5 v 20.4 c 0,3.9 0.7,6.7 2.3,8.3 1.5,1.7 4,2.6 7.3,2.6 z m 33.3,-0.6 V 78.3 c 0,-3.6 1,-6.5 2.8,-8.8 a 9,9 0 0 1 7.4,-3.4 c 1.9,0 3.9,0.2 6,0.6 v -4.8 a 35.4,35.4 0 0 0 -5.8,-0.5 c -1.8,0 -3.3,0.3 -4.6,0.8 a 8.7,8.7 0 0 0 -3.2,2.2 c -1,1 -1.9,2.6 -2.8,4.7 h -0.1 C 200.2,67 199.8,64.6 199,62 h -4.8 a 49.9,49.9 0 0 1 1,5.7 c 0.3,2 0.4,3.7 0.4,5.1 v 19.9 h 5.1 z m 39,0.6 c 3.1,0 5.8,-0.7 8,-2 2.2,-1.2 3.7,-3 4.6,-5.3 l -4.5,-1.3 a 6.2,6.2 0 0 1 -3,3.5 10,10 0 0 1 -5,1.2 c -2.7,0 -4.8,-1 -6.3,-2.9 -1.5,-2 -2.3,-4.6 -2.3,-8 H 253 v -0.8 c 0,-5.4 -1.1,-9.5 -3.4,-12.2 -2.3,-2.7 -5.7,-4 -10.1,-4 -4.4,0 -7.8,1.3 -10.2,4 A 17.3,17.3 0 0 0 225.8,77 c 0,5.2 1.2,9.2 3.6,12 2.4,2.8 5.8,4.2 10.3,4.2 z m -8.4,-18.8 c 0,-2.9 0.9,-5.2 2.3,-6.8 a 7.6,7.6 0 0 1 6,-2.5 c 5,0 7.7,3.1 8.2,9.3 z m -166,83.9 c 4.7,0 8.3,-1.7 10.8,-5.1 2.5,-3.5 3.8,-8.4 3.8,-14.7 a 24,24 0 0 0 -3.8,-14.7 c -2.5,-3.2 -6,-4.9 -10.7,-4.9 -4.8,0 -8.4,1.7 -10.9,5 a 24.3,24.3 0 0 0 -3.7,14.6 c 0,6.5 1.3,11.4 3.8,14.8 2.4,3.4 6,5 10.7,5 z m 0,-4.3 c -2.8,0 -5,-1.4 -6.5,-4 a 23.8,23.8 0 0 1 -2.3,-11.5 c 0,-10.1 3,-15.1 8.9,-15.1 5.8,0 8.8,5 8.8,15 0,5.1 -0.7,9 -2.1,11.6 a 7,7 0 0 1 -6.8,4 z m 33.9,3.8 V 131 h 13.9 v -4 H 99.2 v -0.3 c 0,-1.7 0.2,-3.1 0.7,-4.1 a 4.2,4.2 0 0 1 2.2,-2.1 c 1,-0.5 2.5,-0.7 4.4,-0.7 a 64.6,64.6 0 0 1 7.4,0.5 v -4.1 c -0.8,-0.2 -2,-0.3 -3.6,-0.4 a 57,57 0 0 0 -4.4,-0.2 c -4.2,0 -7.2,0.8 -9,2.4 -1.9,1.7 -2.8,4.4 -2.8,8.3 v 0.7 h -7.4 v 4 H 94 v 26.7 h 5.1 z m -32.6,65.6 c 6.3,0 10.9,-3.5 13.7,-10.5 l -4.5,-1.8 c -1,2.7 -2.4,4.7 -4,6 a 7.9,7.9 0 0 1 -5.1,2 8.1,8.1 0 0 1 -7.4,-4 22.2,22.2 0 0 1 -2.4,-11.5 c 0,-5.2 0.7,-9 2.3,-11.5 1.5,-2.4 4,-3.7 7.2,-3.7 2,0 3.6,0.7 5.1,1.9 1.5,1.2 2.6,3 3.3,5 l 4.7,-1.8 c -2.4,-6.3 -6.8,-9.5 -13.2,-9.5 -10,0 -15.1,6.5 -15.1,19.6 0,6.4 1.3,11.3 4,14.7 2.6,3.4 6.5,5.1 11.4,5.1 z m 33.4,0 c 4.5,0 8,-1.3 10.3,-4 2.4,-2.8 3.5,-6.7 3.5,-11.9 0,-5.3 -1,-9.3 -3.3,-12 -2.3,-2.6 -5.7,-3.9 -10.3,-3.9 a 13,13 0 0 0 -10.2,4 c -2.4,2.7 -3.5,6.6 -3.5,12 0,5 1.1,9 3.4,11.7 2.4,2.8 5.7,4.1 10.1,4.1 z m 0,-3.7 c -2.8,0 -4.8,-1 -6.2,-3.1 -1.3,-2.1 -2,-5.1 -2,-9 0,-4 0.7,-7.1 2,-9.1 1.4,-2 3.5,-3.1 6.5,-3.1 2.9,0 5,1 6.2,3 1.3,2 2,5 2,9.1 0,4 -0.7,7.1 -2,9.1 -1.4,2 -3.5,3 -6.5,3 z m 32.6,4 c 2.3,0 4.2,-0.5 5.7,-1.4 a 9.4,9.4 0 0 0 3.7,-4.4 h 0.1 a 57.3,57.3 0 0 0 0.3,5 h 4.9 l -0.2,-6.3 v -35.8 h -5 V 197 a 8.7,8.7 0 0 0 -3.8,-4 c -1.5,-0.9 -3.4,-1.3 -5.7,-1.3 -7.4,0 -11.1,5.4 -11.1,16 0,5.4 0.9,9.3 2.7,12 1.8,2.6 4.6,4 8.4,4 z m 1.3,-4 c -2.5,0 -4.3,-1 -5.5,-2.9 a 19,19 0 0 1 -1.6,-9.2 c 0,-4.2 0.5,-7.2 1.7,-9.2 1,-2 3,-2.9 5.5,-2.9 2.8,0 4.8,1 6.1,2.8 1.3,1.8 2,4.8 2,8.9 0,4.3 -0.7,7.5 -2,9.5 -1.4,2 -3.4,3 -6.2,3 z m 39.6,-33.5 v -5.4 h -5.7 v 5.4 z m 10.8,36.7 v -4 h -10.8 v -26.7 h -14.1 v 4 h 9 V 219 h -12 v 4 h 27.9 z m 13.2,0 V 205 c 0,-3 0.8,-5.3 2.3,-7 a 7.3,7.3 0 0 1 5.8,-2.5 c 2.1,0 3.7,0.6 4.7,1.8 1,1.3 1.5,3.2 1.5,5.8 v 19.7 h 5.1 v -20.5 c 0,-3.6 -0.8,-6.4 -2.4,-8.1 -1.6,-1.8 -4,-2.7 -7.3,-2.7 -4.6,0 -7.8,2 -9.8,5.8 a 127.7,127.7 0 0 0 -0.3,-4.4 7.5,7.5 0 0 0 0,-0.8 h -4.8 l 0.1,5.8 v 24.9 h 5.1 z m 42,12 c 4.1,0 7.2,-1 9.2,-3.2 2,-2.2 3,-5.4 3,-9.7 v -24 c 0,-3 0,-5 0.2,-6 H 247 l -0.2,2.5 -0.1,2.8 h -0.1 c -0.8,-1.8 -2,-3.2 -3.6,-4.2 -1.6,-1 -3.5,-1.5 -5.6,-1.5 -3.9,0 -6.7,1.3 -8.6,3.8 -1.8,2.5 -2.7,6.5 -2.7,11.8 0,5.3 0.8,9.1 2.6,11.6 1.7,2.4 4.4,3.6 8.2,3.6 a 11,11 0 0 0 5.8,-1.5 c 1.7,-1 3,-2.4 3.9,-4.4 v 5.5 c 0,6 -2.3,9 -7,9 a 7,7 0 0 1 -4.2,-1.2 c -1,-0.8 -1.8,-1.9 -2,-3.3 l -5.3,0.7 a 8.7,8.7 0 0 0 3.7,5.6 c 2,1.4 4.5,2 7.6,2 z m -1,-16.1 a 7,7 0 0 1 -4.2,-1.2 c -1,-0.7 -1.8,-2 -2.2,-3.6 -0.5,-1.6 -0.8,-3.9 -0.8,-6.7 0,-4.3 0.6,-7.3 1.8,-9 1.1,-1.9 3,-2.8 5.6,-2.8 2.4,0 4.4,1 5.8,3.1 1.4,2.1 2.1,5 2.1,8.7 0,2.4 -0.3,4.4 -1,6.2 -0.6,1.7 -1.6,3 -2.8,4 a 7,7 0 0 1 -4.2,1.3 z M 34.8,288 v -8.5 H 28 v 8.5 h 6.7 z m 30.4,0.5 c 4.7,0 8.3,-1.7 10.8,-5.1 2.5,-3.5 3.8,-8.4 3.8,-14.7 A 24,24 0 0 0 76,254 c -2.5,-3.2 -6,-4.9 -10.7,-4.9 -4.8,0 -8.4,1.7 -10.9,5 a 24.3,24.3 0 0 0 -3.6,14.6 c 0,6.4 1.2,11.4 3.7,14.8 2.4,3.3 6,5 10.7,5 z m 0,-4.4 c -2.8,0 -5,-1.3 -6.5,-3.9 a 23.8,23.8 0 0 1 -2.3,-11.5 c 0,-10.1 3,-15.2 8.9,-15.2 5.8,0 8.8,5 8.8,15.2 0,5 -0.7,8.8 -2.1,11.5 a 7,7 0 0 1 -6.7,4 z M 96,288 v -14.4 c 0,-3.6 1,-6.5 2.8,-8.8 a 9,9 0 0 1 7.4,-3.4 c 1.9,0 3.9,0.2 6,0.5 v -4.7 a 35.4,35.4 0 0 0 -5.9,-0.5 c -1.8,0 -3.3,0.3 -4.5,0.8 a 8.7,8.7 0 0 0 -3.3,2.2 c -0.9,1 -1.8,2.6 -2.7,4.7 h -0.2 c -0.1,-2.1 -0.6,-4.5 -1.3,-7.1 h -4.9 a 49.9,49.9 0 0 1 1.1,5.7 c 0.3,2 0.4,3.7 0.4,5 v 20 z m 38.8,12 c 4.2,0 7.3,-1 9.3,-3.2 2,-2.2 3,-5.4 3,-9.7 v -23.9 l 0.1,-6 h -4.8 c 0,0.3 -0.2,1.1 -0.2,2.5 a 59,59 0 0 0 -0.1,2.8 H 142 a 9.7,9.7 0 0 0 -9.2,-5.7 c -3.9,0 -6.7,1.3 -8.6,3.8 -1.8,2.5 -2.8,6.5 -2.8,11.8 0,5.3 0.9,9.1 2.6,11.6 1.8,2.4 4.5,3.6 8.2,3.6 a 11,11 0 0 0 5.9,-1.5 c 1.6,-1 3,-2.4 3.8,-4.4 h 0.1 v 5.5 c 0,6 -2.3,9 -7,9 a 7,7 0 0 1 -4.2,-1.2 c -1.1,-0.8 -1.8,-1.9 -2.1,-3.3 l -5.2,0.7 a 8.7,8.7 0 0 0 3.7,5.6 c 1.9,1.3 4.4,2 7.6,2 z M 134,283.9 a 7,7 0 0 1 -4.3,-1.2 c -1,-0.7 -1.8,-2 -2.3,-3.6 -0.5,-1.6 -0.7,-3.9 -0.7,-6.8 0,-4.2 0.6,-7.2 1.7,-9 1.2,-1.8 3,-2.7 5.6,-2.7 2.5,0 4.5,1 5.9,3.1 1.4,2.1 2.1,5 2.1,8.6 0,2.5 -0.3,4.5 -1,6.3 -0.7,1.7 -1.6,3 -2.8,4 a 7,7 0 0 1 -4.2,1.3 z"
     id="path4" />
  <g
     aria-label="Links"
     id="text3451"
     style="font-size:74.6667px;fill:#003322">
    <path
       d="M 229.30226,448.38846 V 443.977 h 6.96355 v -45.6094 h -6.96355 v -4.41146 h 28.00002 v 4.41146 h -7.00001 v 45.02606 h 21.43751 v -8.60417 h 4.92188 v 13.59897 z"
       style="-inkscape-font-specification:'DejaVu Serif Bold'"
       id="path34516" />
    <path
       d="m 285.15646,398.65927 q 0,-2.95313 2.04167,-4.95834 2.04166,-2.04167 4.99479,-2.04167 2.88021,0 4.88542,2.04167 2.04167,2.00521 2.04167,4.95834 0,2.88021 -2.04167,4.92188 -2.00521,2.0052 -4.88542,2.0052 -2.95313,0 -4.99479,-2.0052 -2.04167,-2.00521 -2.04167,-4.92188 z m 14.10938,45.31773 h 5.54167 v 4.41146 H 280.85437 V 443.977 h 5.50521 v -29.93231 h -5.50521 v -4.41146 h 18.41147 z"
       style="-inkscape-font-specification:'DejaVu Serif Bold'"
       id="path34518" />
    <path
       d="M 309.21897,448.38846 V 443.977 h 5.50521 v -29.93231 h -5.50521 v -4.41146 h 18.41147 v 5.46875 q 2.33333,-3.46354 5.32292,-4.99479 2.98958,-1.53125 7.54687,-1.53125 6.52605,0 9.84376,3.86458 3.35417,3.82813 3.35417,11.30209 V 443.977 h 5.54167 v 4.41146 H 336.08877 V 443.977 h 4.70313 v -20.59897 q 0,-4.92188 -1.27604,-6.81771 -1.23958,-1.93229 -4.33854,-1.93229 -3.90105,0 -5.72397,2.88021 -1.82291,2.84375 -1.82291,9.07812 V 443.977 h 4.73958 v 4.41146 z"
       style="-inkscape-font-specification:'DejaVu Serif Bold'"
       id="path34520" />
    <path
       d="M 386.80234,448.38846 H 363.50545 V 443.977 h 5.50521 v -47.94273 h -5.50521 v -4.37501 h 18.41147 v 36.4219 l 15.64063,-14.03647 h -4.63021 v -4.41146 h 17.6823 v 4.41146 h -7.18229 l -9.98959,8.96876 16.33334,20.96355 h 4.19271 v 4.41146 H 391.72422 V 443.977 h 4.55729 l -10.75521,-13.81772 -3.60938,3.20834 V 443.977 h 4.88542 z"
       style="-inkscape-font-specification:'DejaVu Serif Bold'"
       id="path34522" />
    <path
       d="m 416.18776,447.25825 v -10.82813 h 4.11979 q 0.51042,4.33854 3.2448,6.63542 2.73437,2.26042 7.4375,2.26042 3.9375,0 6.01563,-1.34896 2.11458,-1.38542 2.11458,-3.9375 0,-2.33334 -1.34896,-3.60938 -1.3125,-1.27604 -5.14062,-2.22396 l -5.32292,-1.34896 q -6.01563,-1.49479 -8.71355,-4.26563 -2.69792,-2.80729 -2.69792,-7.54687 0,-6.3073 4.37501,-9.3698 4.375,-3.09896 13.48959,-3.09896 3.42708,0 7.29167,0.58333 3.90104,0.54688 8.60417,1.75 v 9.77084 h -4.1198 q -0.32812,-3.97396 -2.84375,-5.97917 -2.47917,-2.00521 -7.14583,-2.00521 -3.93751,0 -5.97917,1.27605 -2.00521,1.23958 -2.00521,3.64583 0,1.96875 1.16666,3.09896 1.16667,1.13021 4.19271,1.89583 l 5.28646,1.34896 q 7.6198,1.9323 10.53647,4.77605 2.91667,2.84375 2.91667,7.91146 0,6.5625 -4.70313,9.69792 -4.66667,3.09896 -14.54688,3.09896 -3.60938,0 -7.65626,-0.54687 -4.04687,-0.54688 -8.56771,-1.64063 z"
       style="-inkscape-font-specification:'DejaVu Serif Bold'"
       id="path34524" />
  </g>
</svg>
