<svg xmlns="http://www.w3.org/2000/svg" viewBox="0 0 500 500">
  <g fill="none" fill-rule="evenodd">
    <path fill="#00CE89" d="M0 0h500v500H0z"/>
    <path fill="#FFF" fill-rule="nonzero" d="M58.9 92.7V77.3H78V73H59v-14h19.8v-4.5H53.4v38.3H59zm38.8.6c2.3 0 4.2-.5 5.8-1.4 1.5-.8 2.9-2.3 4-4.5h.1a131.4 131.4 0 00.2 5.3h4.8l-.1-6.6V62h-5.1v17.8c0 3-.8 5.4-2.2 7a7.2 7.2 0 01-5.7 2.5c-2.4 0-4-.6-5-1.7S93 84.4 93 81.5V62h-5v20.4c0 3.9.7 6.7 2.2 8.3 1.6 1.7 4 2.6 7.4 2.6zM137 93a36 36 0 009.5-1.3V88c-3 .6-5.9 1-8.4 1-1.9 0-3.2-.4-4-1.2-.8-.7-1.2-1.8-1.2-3.3V66h12.3v-4h-12.3v-8h-3.4l-1.6 8H123v4h4.7v19c0 2.9.8 4.9 2.3 6.2 1.5 1.3 3.8 2 6.9 2zm30.4.2c2.3 0 4.2-.5 5.8-1.4 1.5-.8 2.9-2.3 4-4.5h.1l.1 3 .1 1.5v.8h4.9a61 61 0 01-.2-5.8V62H177v17.8c0 3-.7 5.4-2.1 7a7.2 7.2 0 01-5.8 2.5c-2.4 0-4-.6-5-1.7s-1.4-3.2-1.4-6.1V62h-5v20.4c0 3.9.7 6.7 2.3 8.3 1.5 1.7 4 2.6 7.3 2.6zm33.3-.6V78.3c0-3.6 1-6.5 2.8-8.8a9 9 0 017.4-3.4c1.9 0 3.9.2 6 .6v-4.8a35.4 35.4 0 00-5.8-.5c-1.8 0-3.3.3-4.6.8a8.7 8.7 0 00-3.2 2.2c-1 1-1.9 2.6-2.8 4.7h-.1c-.2-2.1-.6-4.5-1.4-7.1h-4.8a49.9 49.9 0 011 5.7c.3 2 .4 3.7.4 5.1v19.9h5.1zm39 .6c3.1 0 5.8-.7 8-2 2.2-1.2 3.7-3 4.6-5.3l-4.5-1.3a6.2 6.2 0 01-3 3.5 10 10 0 01-5 1.2c-2.7 0-4.8-1-6.3-2.9-1.5-2-2.3-4.6-2.3-8H253v-.8c0-5.4-1.1-9.5-3.4-12.2-2.3-2.7-5.7-4-10.1-4s-7.8 1.3-10.2 4a17.3 17.3 0 00-3.5 11.6c0 5.2 1.2 9.2 3.6 12 2.4 2.8 5.8 4.2 10.3 4.2zm-8.4-18.8c0-2.9.9-5.2 2.3-6.8a7.6 7.6 0 016-2.5c5 0 7.7 3.1 8.2 9.3h-16.5zM65.3 158.3c4.7 0 8.3-1.7 10.8-5.1 2.5-3.5 3.8-8.4 3.8-14.7a24 24 0 00-3.8-14.7c-2.5-3.2-6-4.9-10.7-4.9-4.8 0-8.4 1.7-10.9 5a24.3 24.3 0 00-3.7 14.6c0 6.5 1.3 11.4 3.8 14.8 2.4 3.4 6 5 10.7 5zm0-4.3c-2.8 0-5-1.4-6.5-4a23.8 23.8 0 01-2.3-11.5c0-10.1 3-15.1 8.9-15.1 5.8 0 8.8 5 8.8 15 0 5.1-.7 9-2.1 11.6a7 7 0 01-6.8 4zm33.9 3.8V131h13.9v-4H99.2v-.3c0-1.7.2-3.1.7-4.1a4.2 4.2 0 012.2-2.1c1-.5 2.5-.7 4.4-.7a64.6 64.6 0 017.4.5v-4.1c-.8-.2-2-.3-3.6-.4a57 57 0 00-4.4-.2c-4.2 0-7.2.8-9 2.4-1.9 1.7-2.8 4.4-2.8 8.3v.7h-7.4v4H94v26.7h5.1zm-32.6 65.6c6.3 0 10.9-3.5 13.7-10.5l-4.5-1.8c-1 2.7-2.4 4.7-4 6a7.9 7.9 0 01-5.1 2 8.1 8.1 0 01-7.4-4 22.2 22.2 0 01-2.4-11.5c0-5.2.7-9 2.3-11.5 1.5-2.4 4-3.7 7.2-3.7 2 0 3.6.7 5.1 1.9 1.5 1.2 2.6 3 3.3 5l4.7-1.8c-2.4-6.3-6.8-9.5-13.2-9.5-10 0-15.1 6.5-15.1 19.6 0 6.4 1.3 11.3 4 14.7 2.6 3.4 6.5 5.1 11.4 5.1zm33.4 0c4.5 0 8-1.3 10.3-4 2.4-2.8 3.5-6.7 3.5-11.9 0-5.3-1-9.3-3.3-12-2.3-2.6-5.7-3.9-10.3-3.9a13 13 0 00-10.2 4c-2.4 2.7-3.5 6.6-3.5 12 0 5 1.1 9 3.4 11.7 2.4 2.8 5.7 4.1 10.1 4.1zm0-3.7c-2.8 0-4.8-1-6.2-3.1-1.3-2.1-2-5.1-2-9 0-4 .7-7.1 2-9.1 1.4-2 3.5-3.1 6.5-3.1 2.9 0 5 1 6.2 3 1.3 2 2 5 2 9.1 0 4-.7 7.1-2 9.1-1.4 2-3.5 3-6.5 3zm32.6 4c2.3 0 4.2-.5 5.7-1.4a9.4 9.4 0 003.7-4.4h.1a57.3 57.3 0 00.3 5h4.9l-.2-6.3v-35.8h-5V197a8.7 8.7 0 00-3.8-4c-1.5-.9-3.4-1.3-5.7-1.3-7.4 0-11.1 5.4-11.1 16 0 5.4.9 9.3 2.7 12 1.8 2.6 4.6 4 8.4 4zm1.3-4c-2.5 0-4.3-1-5.5-2.9a19 19 0 01-1.6-9.2c0-4.2.5-7.2 1.7-9.2 1-2 3-2.9 5.5-2.9 2.8 0 4.8 1 6.1 2.8 1.3 1.8 2 4.8 2 8.9 0 4.3-.7 7.5-2 9.5-1.4 2-3.4 3-6.2 3zm39.6-33.5v-5.4h-5.7v5.4h5.7zm10.8 36.7v-4h-10.8v-26.7h-14.1v4h9V219h-12v4h27.9zm13.2 0V205c0-3 .8-5.3 2.3-7a7.3 7.3 0 015.8-2.5c2.1 0 3.7.6 4.7 1.8 1 1.3 1.5 3.2 1.5 5.8v19.7h5.1v-20.5c0-3.6-.8-6.4-2.4-8.1-1.6-1.8-4-2.7-7.3-2.7-4.6 0-7.8 2-9.8 5.8a127.7 127.7 0 00-.3-4.4 7.5 7.5 0 000-.8h-4.8l.1 5.8v24.9h5.1zm42 12c4.1 0 7.2-1 9.2-3.2 2-2.2 3-5.4 3-9.7V198c0-3 0-5 .2-6H247l-.2 2.5-.1 2.8h-.1c-.8-1.8-2-3.2-3.6-4.2s-3.5-1.5-5.6-1.5c-3.9 0-6.7 1.3-8.6 3.8-1.8 2.5-2.7 6.5-2.7 11.8 0 5.3.8 9.1 2.6 11.6 1.7 2.4 4.4 3.6 8.2 3.6a11 11 0 005.8-1.5c1.7-1 3-2.4 3.9-4.4v5.5c0 6-2.3 9-7 9a7 7 0 01-4.2-1.2c-1-.8-1.8-1.9-2-3.3l-5.3.7a8.7 8.7 0 003.7 5.6c2 1.4 4.5 2 7.6 2zm-1-16.1a7 7 0 01-4.2-1.2c-1-.7-1.8-2-2.2-3.6-.5-1.6-.8-3.9-.8-6.7 0-4.3.6-7.3 1.8-9 1.1-1.9 3-2.8 5.6-2.8 2.4 0 4.4 1 5.8 3.1 1.4 2.1 2.1 5 2.1 8.7 0 2.4-.3 4.4-1 6.2-.6 1.7-1.6 3-2.8 4a7 7 0 01-4.2 1.3zM34.8 288v-8.5H28v8.5h6.7zm30.4.5c4.7 0 8.3-1.7 10.8-5.1 2.5-3.5 3.8-8.4 3.8-14.7a24 24 0 00-3.8-14.7c-2.5-3.2-6-4.9-10.7-4.9-4.8 0-8.4 1.7-10.9 5a24.3 24.3 0 00-3.6 14.6c0 6.4 1.2 11.4 3.7 14.8 2.4 3.3 6 5 10.7 5zm0-4.4c-2.8 0-5-1.3-6.5-3.9a23.8 23.8 0 01-2.3-11.5c0-10.1 3-15.2 8.9-15.2 5.8 0 8.8 5 8.8 15.2 0 5-.7 8.8-2.1 11.5a7 7 0 01-6.7 4zM96 288v-14.4c0-3.6 1-6.5 2.8-8.8a9 9 0 017.4-3.4c1.9 0 3.9.2 6 .5v-4.7a35.4 35.4 0 00-5.9-.5c-1.8 0-3.3.3-4.5.8a8.7 8.7 0 00-3.3 2.2c-.9 1-1.8 2.6-2.7 4.7h-.2c-.1-2.1-.6-4.5-1.3-7.1h-4.9a49.9 49.9 0 011.1 5.7c.3 2 .4 3.7.4 5v20H96zm38.8 12c4.2 0 7.3-1 9.3-3.2 2-2.2 3-5.4 3-9.7v-23.9l.1-6h-4.8c0 .3-.2 1.1-.2 2.5a59 59 0 00-.1 2.8h-.1a9.7 9.7 0 00-9.2-5.7c-3.9 0-6.7 1.3-8.6 3.8-1.8 2.5-2.8 6.5-2.8 11.8 0 5.3.9 9.1 2.6 11.6 1.8 2.4 4.5 3.6 8.2 3.6a11 11 0 005.9-1.5c1.6-1 3-2.4 3.8-4.4h.1v5.5c0 6-2.3 9-7 9a7 7 0 01-4.2-1.2c-1.1-.8-1.8-1.9-2.1-3.3l-5.2.7a8.7 8.7 0 003.7 5.6c1.9 1.3 4.4 2 7.6 2zm-.8-16.1a7 7 0 01-4.3-1.2c-1-.7-1.8-2-2.3-3.6-.5-1.6-.7-3.9-.7-6.8 0-4.2.6-7.2 1.7-9 1.2-1.8 3-2.7 5.6-2.7 2.5 0 4.5 1 5.9 3.1 1.4 2.1 2.1 5 2.1 8.6 0 2.5-.3 4.5-1 6.3-.7 1.7-1.6 3-2.8 4a7 7 0 01-4.2 1.3z"/>
    <path fill="#032" fill-rule="nonzero" d="M170 448v-4c-3.5 0-5.8-.5-6.8-1.6-1-1-1.5-2.8-1.5-5.2v-17.5h27v17.5c0 1.6-.2 2.9-.5 3.8-.4 1-1.1 1.8-2.3 2.3-1.3.5-3 .7-5.4.7v4h28.7v-4c-2.5 0-4.3-.2-5.5-.8-1.2-.6-2-1.3-2.2-2.3-.3-.9-.5-2.2-.5-3.7v-36.6c0-1.7.2-3 .5-3.9.3-1 1.1-1.7 2.3-2.2 1.1-.5 3-.8 5.4-.8v-4h-28.7v4c2.5 0 4.3.3 5.5.8 1.2.5 1.9 1.3 2.2 2.2.3 1 .5 2.2.5 3.9v14.3h-27v-14.3c0-2.5.5-4.3 1.5-5.3s3.3-1.6 6.8-1.6v-4h-28.8v4c2.4 0 4.2.3 5.4.8 1.2.5 2 1.3 2.3 2.2.3 1 .5 2.2.5 3.9v36.6c0 1.6-.2 2.9-.6 3.9-.3 1-1.1 1.7-2.3 2.2-1.2.5-3 .7-5.3.7v4H170zm55.8-47.2a6 6 0 004.4-1.8 6 6 0 001.8-4.4 6 6 0 00-1.8-4.5 6 6 0 00-4.4-1.8 6 6 0 00-4.5 1.9 6 6 0 00-1.8 4.4 6 6 0 001.9 4.4 6 6 0 004.4 1.8zm11 47.2v-4c-2.6 0-4.2-.4-4.8-1.3-.6-.9-.9-2.5-.9-5v-26.3l-17.6 3.7v4c2.1 0 3.7.2 4.6.5.9.3 1.4.9 1.6 1.6.2.8.4 2 .4 3.8v12.8c0 1.6-.1 2.8-.3 3.6-.2.9-.6 1.5-1.4 2-.8.4-2 .6-3.6.6h-1.3v4H237zm24.3 1.4c3.4 0 6.3-.4 9-1.3 2.5-1 4.5-2.3 6-4a9.5 9.5 0 002.2-6.3c0-4.3-1.5-7.3-4.5-9-3-1.8-6.8-3.2-11.5-4.4l-4.3-1-5-1.5c-.9-.4-1.6-.8-2-1.2-.3-.5-.5-1-.5-1.7 0-1.6 1-2.6 3-3a28.3 28.3 0 0112.4.1c1.8.6 3.3 1.3 4.4 2.3 1.1 1 1.9 2 2.2 3.2h3.5v-10h-3.4l-1 2.2a29.7 29.7 0 00-12.3-2.4c-5.1 0-9.2 1-12.3 3a9.1 9.1 0 00-4.7 8c0 2.7.9 4.8 2.6 6.5 1.8 1.7 4 3 6.4 4 2.6.8 5.8 1.8 9.7 2.8 3.3.8 5.5 1.5 6.7 2.1a3 3 0 011.8 2.8c0 1.5-.6 2.6-1.7 3.3a9 9 0 01-3.7 1.3l-3.5.3c-4.3 0-7.6-.8-9.8-2.3s-3.7-3.3-4.4-5.2h-3.6l.5 11.2h3.3l1.7-2.4c1.7.8 3.7 1.5 6 2 2.3.4 4.6.6 6.8.6zm38.7 0c2.7 0 5.2-.7 7.2-2a17 17 0 005.4-7l-3.7-1.7c-.8 1.6-1.6 3-2.5 4-1 1-2 1.6-3.4 1.6-1.3 0-2.1-.5-2.5-1.6-.3-1.2-.5-3-.5-5.4v-20.5H312v-4h-12.2v-11.3h-3.5c-.3 2-1 3.8-2.2 5.6a12.4 12.4 0 01-4.7 4.2c-2 1-4.4 1.5-7.1 1.5v4h6.5V437c0 2.1.1 4 .5 5.7a8.5 8.5 0 003 4.7c1.6 1.3 4 2 7.5 2zm38.3 0c3.8 0 7.4-.7 10.6-2.3 3.2-1.5 5.8-3.7 7.7-6.6 1.8-3 2.8-6.3 2.8-10.2a19 19 0 00-2.4-9.4c-1.7-3-4-5.2-7.2-7a23.2 23.2 0 00-11.3-2.5c-5.8 0-10.8 1.6-15 4.8-4.3 3.2-6.4 8-6.4 14.2a17.6 17.6 0 0011 17c3.2 1.3 6.6 2 10.2 2zm0-4c-3.9 0-6.4-1.3-7.6-4a39.3 39.3 0 01-1-19.4c.5-2.3 1.5-4 2.8-5 1.3-1.1 3.2-1.7 5.6-1.7 3.7 0 6.2 1.3 7.5 3.7 1.3 2.5 2 6.2 2 11 0 2.9-.3 5.4-.7 7.6a11 11 0 01-2.6 5.6c-1.3 1.5-3.3 2.3-6 2.3zm52 2.6v-4H388c-2.6 0-4.3-.4-4.9-1.3-.6-.9-1-2.5-1-5v-7.4c0-2.6.7-5.1 2-7.5 1.2-2.5 3-3.7 5.2-3.7.7 0 1.2.2 1.6.5l1.4 1.5c1.2 1.6 2.7 2.5 4.3 2.5a5 5 0 005.1-5.4c0-2-.7-3.5-2-4.8a7.7 7.7 0 00-5.7-2c-1.6 0-3.3.4-5 1.3-1.5.8-3 2-4.3 3.4a18.4 18.4 0 00-3.2 4.6c-.3-4.7-.7-7.8-1.2-9.3l-16.7 3.7v4c2.2 0 3.8 0 4.8.3a3 3 0 012 1.7c.5.8.7 2.2.7 4.1v12.6c0 2.3-.3 4-.9 4.9-.5.9-2 1.3-4.4 1.3h-2.2v4h26.7zm26.5 21.5a7 7 0 004.8-1.7c1.3-1.1 2.5-2.6 3.5-4.5 1-2 3-5.8 5.7-11.5l12.6-26.1 3-5.9c.6-1 1.2-1.6 1.9-2a7 7 0 012.9-1v-4h-14v4a6 6 0 013 .7c.9.4 1.3 1.1 1.3 2 0 .7-.5 2-1.4 4l-6.7 13.6-9-16a7.5 7.5 0 01-1.3-3c0-.9 1-1.3 3-1.3h1.3v-4h-20.8v4a5 5 0 012.6.5c.6.4 1.3 1.3 2 2.7l16.5 28.9a36 36 0 01-3.5 6.4c-1.4 2-3.3 3.4-5.9 4.1-1.9.6-3.4 1.2-4.6 2-1.2.8-1.8 2-1.8 3.8 0 1.3.5 2.3 1.5 3 1 .9 2.1 1.3 3.4 1.3z"/>
  </g>
</svg>
