<?xml version="1.0" encoding="UTF-8" standalone="no"?>
<svg
   viewBox="0 0 500 500"
   version="1.1"
   id="svg10"
   sodipodi:docname="logo.svg"
   inkscape:version="1.1.2 (0a00cf5339, 2022-02-04)"
   xmlns:inkscape="http://www.inkscape.org/namespaces/inkscape"
   xmlns:sodipodi="http://sodipodi.sourceforge.net/DTD/sodipodi-0.dtd"
   xmlns="http://www.w3.org/2000/svg"
   xmlns:svg="http://www.w3.org/2000/svg">
  <defs
     id="defs14" />
  <sodipodi:namedview
     id="namedview12"
     pagecolor="#ffffff"
     bordercolor="#666666"
     borderopacity="1.0"
     inkscape:pageshadow="2"
     inkscape:pageopacity="0.0"
     inkscape:pagecheckerboard="0"
     showgrid="false"
     inkscape:zoom="1.69"
     inkscape:cx="250"
     inkscape:cy="250.29586"
     inkscape:window-width="1920"
     inkscape:window-height="1016"
     inkscape:window-x="0"
     inkscape:window-y="27"
     inkscape:window-maximized="1"
     inkscape:current-layer="g8" />
  <g
     fill="none"
     fill-rule="evenodd"
     id="g8">
    <path
       fill="#00CE89"
       d="M0 0h500v500H0z"
       id="path2" />
    <path
       fill="#FFF"
       fill-rule="nonzero"
       d="M58.9 92.7V77.3H78V73H59v-14h19.8v-4.5H53.4v38.3H59zm38.8.6c2.3 0 4.2-.5 5.8-1.4 1.5-.8 2.9-2.3 4-4.5h.1a131.4 131.4 0 00.2 5.3h4.8l-.1-6.6V62h-5.1v17.8c0 3-.8 5.4-2.2 7a7.2 7.2 0 01-5.7 2.5c-2.4 0-4-.6-5-1.7S93 84.4 93 81.5V62h-5v20.4c0 3.9.7 6.7 2.2 8.3 1.6 1.7 4 2.6 7.4 2.6zM137 93a36 36 0 009.5-1.3V88c-3 .6-5.9 1-8.4 1-1.9 0-3.2-.4-4-1.2-.8-.7-1.2-1.8-1.2-3.3V66h12.3v-4h-12.3v-8h-3.4l-1.6 8H123v4h4.7v19c0 2.9.8 4.9 2.3 6.2 1.5 1.3 3.8 2 6.9 2zm30.4.2c2.3 0 4.2-.5 5.8-1.4 1.5-.8 2.9-2.3 4-4.5h.1l.1 3 .1 1.5v.8h4.9a61 61 0 01-.2-5.8V62H177v17.8c0 3-.7 5.4-2.1 7a7.2 7.2 0 01-5.8 2.5c-2.4 0-4-.6-5-1.7s-1.4-3.2-1.4-6.1V62h-5v20.4c0 3.9.7 6.7 2.3 8.3 1.5 1.7 4 2.6 7.3 2.6zm33.3-.6V78.3c0-3.6 1-6.5 2.8-8.8a9 9 0 017.4-3.4c1.9 0 3.9.2 6 .6v-4.8a35.4 35.4 0 00-5.8-.5c-1.8 0-3.3.3-4.6.8a8.7 8.7 0 00-3.2 2.2c-1 1-1.9 2.6-2.8 4.7h-.1c-.2-2.1-.6-4.5-1.4-7.1h-4.8a49.9 49.9 0 011 5.7c.3 2 .4 3.7.4 5.1v19.9h5.1zm39 .6c3.1 0 5.8-.7 8-2 2.2-1.2 3.7-3 4.6-5.3l-4.5-1.3a6.2 6.2 0 01-3 3.5 10 10 0 01-5 1.2c-2.7 0-4.8-1-6.3-2.9-1.5-2-2.3-4.6-2.3-8H253v-.8c0-5.4-1.1-9.5-3.4-12.2-2.3-2.7-5.7-4-10.1-4s-7.8 1.3-10.2 4a17.3 17.3 0 00-3.5 11.6c0 5.2 1.2 9.2 3.6 12 2.4 2.8 5.8 4.2 10.3 4.2zm-8.4-18.8c0-2.9.9-5.2 2.3-6.8a7.6 7.6 0 016-2.5c5 0 7.7 3.1 8.2 9.3h-16.5zM65.3 158.3c4.7 0 8.3-1.7 10.8-5.1 2.5-3.5 3.8-8.4 3.8-14.7a24 24 0 00-3.8-14.7c-2.5-3.2-6-4.9-10.7-4.9-4.8 0-8.4 1.7-10.9 5a24.3 24.3 0 00-3.7 14.6c0 6.5 1.3 11.4 3.8 14.8 2.4 3.4 6 5 10.7 5zm0-4.3c-2.8 0-5-1.4-6.5-4a23.8 23.8 0 01-2.3-11.5c0-10.1 3-15.1 8.9-15.1 5.8 0 8.8 5 8.8 15 0 5.1-.7 9-2.1 11.6a7 7 0 01-6.8 4zm33.9 3.8V131h13.9v-4H99.2v-.3c0-1.7.2-3.1.7-4.1a4.2 4.2 0 012.2-2.1c1-.5 2.5-.7 4.4-.7a64.6 64.6 0 017.4.5v-4.1c-.8-.2-2-.3-3.6-.4a57 57 0 00-4.4-.2c-4.2 0-7.2.8-9 2.4-1.9 1.7-2.8 4.4-2.8 8.3v.7h-7.4v4H94v26.7h5.1zm-32.6 65.6c6.3 0 10.9-3.5 13.7-10.5l-4.5-1.8c-1 2.7-2.4 4.7-4 6a7.9 7.9 0 01-5.1 2 8.1 8.1 0 01-7.4-4 22.2 22.2 0 01-2.4-11.5c0-5.2.7-9 2.3-11.5 1.5-2.4 4-3.7 7.2-3.7 2 0 3.6.7 5.1 1.9 1.5 1.2 2.6 3 3.3 5l4.7-1.8c-2.4-6.3-6.8-9.5-13.2-9.5-10 0-15.1 6.5-15.1 19.6 0 6.4 1.3 11.3 4 14.7 2.6 3.4 6.5 5.1 11.4 5.1zm33.4 0c4.5 0 8-1.3 10.3-4 2.4-2.8 3.5-6.7 3.5-11.9 0-5.3-1-9.3-3.3-12-2.3-2.6-5.7-3.9-10.3-3.9a13 13 0 00-10.2 4c-2.4 2.7-3.5 6.6-3.5 12 0 5 1.1 9 3.4 11.7 2.4 2.8 5.7 4.1 10.1 4.1zm0-3.7c-2.8 0-4.8-1-6.2-3.1-1.3-2.1-2-5.1-2-9 0-4 .7-7.1 2-9.1 1.4-2 3.5-3.1 6.5-3.1 2.9 0 5 1 6.2 3 1.3 2 2 5 2 9.1 0 4-.7 7.1-2 9.1-1.4 2-3.5 3-6.5 3zm32.6 4c2.3 0 4.2-.5 5.7-1.4a9.4 9.4 0 003.7-4.4h.1a57.3 57.3 0 00.3 5h4.9l-.2-6.3v-35.8h-5V197a8.7 8.7 0 00-3.8-4c-1.5-.9-3.4-1.3-5.7-1.3-7.4 0-11.1 5.4-11.1 16 0 5.4.9 9.3 2.7 12 1.8 2.6 4.6 4 8.4 4zm1.3-4c-2.5 0-4.3-1-5.5-2.9a19 19 0 01-1.6-9.2c0-4.2.5-7.2 1.7-9.2 1-2 3-2.9 5.5-2.9 2.8 0 4.8 1 6.1 2.8 1.3 1.8 2 4.8 2 8.9 0 4.3-.7 7.5-2 9.5-1.4 2-3.4 3-6.2 3zm39.6-33.5v-5.4h-5.7v5.4h5.7zm10.8 36.7v-4h-10.8v-26.7h-14.1v4h9V219h-12v4h27.9zm13.2 0V205c0-3 .8-5.3 2.3-7a7.3 7.3 0 015.8-2.5c2.1 0 3.7.6 4.7 1.8 1 1.3 1.5 3.2 1.5 5.8v19.7h5.1v-20.5c0-3.6-.8-6.4-2.4-8.1-1.6-1.8-4-2.7-7.3-2.7-4.6 0-7.8 2-9.8 5.8a127.7 127.7 0 00-.3-4.4 7.5 7.5 0 000-.8h-4.8l.1 5.8v24.9h5.1zm42 12c4.1 0 7.2-1 9.2-3.2 2-2.2 3-5.4 3-9.7V198c0-3 0-5 .2-6H247l-.2 2.5-.1 2.8h-.1c-.8-1.8-2-3.2-3.6-4.2s-3.5-1.5-5.6-1.5c-3.9 0-6.7 1.3-8.6 3.8-1.8 2.5-2.7 6.5-2.7 11.8 0 5.3.8 9.1 2.6 11.6 1.7 2.4 4.4 3.6 8.2 3.6a11 11 0 005.8-1.5c1.7-1 3-2.4 3.9-4.4v5.5c0 6-2.3 9-7 9a7 7 0 01-4.2-1.2c-1-.8-1.8-1.9-2-3.3l-5.3.7a8.7 8.7 0 003.7 5.6c2 1.4 4.5 2 7.6 2zm-1-16.1a7 7 0 01-4.2-1.2c-1-.7-1.8-2-2.2-3.6-.5-1.6-.8-3.9-.8-6.7 0-4.3.6-7.3 1.8-9 1.1-1.9 3-2.8 5.6-2.8 2.4 0 4.4 1 5.8 3.1 1.4 2.1 2.1 5 2.1 8.7 0 2.4-.3 4.4-1 6.2-.6 1.7-1.6 3-2.8 4a7 7 0 01-4.2 1.3zM34.8 288v-8.5H28v8.5h6.7zm30.4.5c4.7 0 8.3-1.7 10.8-5.1 2.5-3.5 3.8-8.4 3.8-14.7a24 24 0 00-3.8-14.7c-2.5-3.2-6-4.9-10.7-4.9-4.8 0-8.4 1.7-10.9 5a24.3 24.3 0 00-3.6 14.6c0 6.4 1.2 11.4 3.7 14.8 2.4 3.3 6 5 10.7 5zm0-4.4c-2.8 0-5-1.3-6.5-3.9a23.8 23.8 0 01-2.3-11.5c0-10.1 3-15.2 8.9-15.2 5.8 0 8.8 5 8.8 15.2 0 5-.7 8.8-2.1 11.5a7 7 0 01-6.7 4zM96 288v-14.4c0-3.6 1-6.5 2.8-8.8a9 9 0 017.4-3.4c1.9 0 3.9.2 6 .5v-4.7a35.4 35.4 0 00-5.9-.5c-1.8 0-3.3.3-4.5.8a8.7 8.7 0 00-3.3 2.2c-.9 1-1.8 2.6-2.7 4.7h-.2c-.1-2.1-.6-4.5-1.3-7.1h-4.9a49.9 49.9 0 011.1 5.7c.3 2 .4 3.7.4 5v20H96zm38.8 12c4.2 0 7.3-1 9.3-3.2 2-2.2 3-5.4 3-9.7v-23.9l.1-6h-4.8c0 .3-.2 1.1-.2 2.5a59 59 0 00-.1 2.8h-.1a9.7 9.7 0 00-9.2-5.7c-3.9 0-6.7 1.3-8.6 3.8-1.8 2.5-2.8 6.5-2.8 11.8 0 5.3.9 9.1 2.6 11.6 1.8 2.4 4.5 3.6 8.2 3.6a11 11 0 005.9-1.5c1.6-1 3-2.4 3.8-4.4h.1v5.5c0 6-2.3 9-7 9a7 7 0 01-4.2-1.2c-1.1-.8-1.8-1.9-2.1-3.3l-5.2.7a8.7 8.7 0 003.7 5.6c1.9 1.3 4.4 2 7.6 2zm-.8-16.1a7 7 0 01-4.3-1.2c-1-.7-1.8-2-2.3-3.6-.5-1.6-.7-3.9-.7-6.8 0-4.2.6-7.2 1.7-9 1.2-1.8 3-2.7 5.6-2.7 2.5 0 4.5 1 5.9 3.1 1.4 2.1 2.1 5 2.1 8.6 0 2.5-.3 4.5-1 6.3-.7 1.7-1.6 3-2.8 4a7 7 0 01-4.2 1.3z"
       id="path4" />
    <g
       aria-label="People"
       id="text2722"
       style="font-size:85.3333px;font-family:serif;-inkscape-font-specification:serif;fill:#003322">
      <path
         d="m 190.88319,416.40412 h 11 q 6.20833,0 9.45833,-3.33334 3.24999,-3.37499 3.24999,-9.70832 0,-6.375 -3.24999,-9.70833 -3.25,-3.33334 -9.45833,-3.33334 h -11 z m -16.37499,31.66665 v -4.41666 h 7.91666 v -53.33332 h -7.91666 v -4.45833 h 29.41665 q 9.33333,0 14.79166,4.75 5.45833,4.70833 5.45833,12.75 0,7.99999 -5.45833,12.74999 -5.45833,4.75 -14.79166,4.75 h -13.04166 v 22.79166 h 9.625 v 4.41666 z"
         style="-inkscape-font-specification:'serif, Normal'"
         id="path78655" />
      <path
         d="M 269.63316,426.73745 H 236.5915 v 0.33333 q 0,8.95833 3.375,13.54166 3.375,4.54166 9.95833,4.54166 5.04167,0 8.25,-2.62499 3.25,-2.66667 4.54166,-7.875 h 6.16667 q -1.83334,7.29166 -6.79167,10.95833 -4.91666,3.66666 -12.95833,3.66666 -9.70833,0 -15.62499,-6.37499 -5.875,-6.41667 -5.875,-17 0,-10.49999 5.79167,-16.91666 5.79166,-6.41666 15.20832,-6.41666 10.04167,0 15.41666,6.20833 5.375,6.16666 5.58334,17.95833 z m -9.04167,-4.41667 q -0.25,-7.75 -3.29166,-11.66666 -3,-3.95833 -8.66667,-3.95833 -5.29166,0 -8.33333,3.95833 -3.04166,3.95833 -3.70833,11.66666 z"
         style="-inkscape-font-specification:'serif, Normal'"
         id="path78657" />
      <path
         d="m 299.5498,445.1541 q 6.16667,0 9.29167,-4.87499 3.16666,-4.875 3.16666,-14.375 0,-9.49999 -3.16666,-14.33332 -3.125,-4.875 -9.29167,-4.875 -6.16666,0 -9.33333,4.875 -3.12499,4.83333 -3.12499,14.33332 0,9.5 3.16666,14.375 3.16667,4.87499 9.29166,4.87499 z m 0,4.125 q -9.66666,0 -15.54166,-6.37499 -5.87499,-6.41667 -5.87499,-17 0,-10.58333 5.83333,-16.95832 5.87499,-6.375 15.58332,-6.375 9.70833,0 15.54166,6.375 5.875,6.37499 5.875,16.95832 0,10.58333 -5.875,17 -5.83333,6.37499 -15.54166,6.37499 z"
         style="-inkscape-font-specification:'serif, Normal'"
         id="path78659" />
      <path
         d="m 342.75813,423.73745 v 4.375 q 0,7.99999 3.04166,12.20832 3.08333,4.16667 8.91666,4.16667 5.875,0 8.875,-4.70833 3.04167,-4.70833 3.04167,-13.875 0,-9.20833 -3.04167,-13.87499 -3,-4.66667 -8.875,-4.66667 -5.83333,0 -8.91666,4.20834 -3.04166,4.20833 -3.04166,12.16666 z m -7.66667,-15.5 h -7.37499 v -4.45833 h 15.04166 v 6.91667 q 2.24999,-4.16667 5.70833,-6.125 3.5,-2 8.62499,-2 8.16667,0 13.33333,6.45833 5.16667,6.45833 5.16667,16.87499 0,10.41667 -5.16667,16.91666 -5.16666,6.45833 -13.33333,6.45833 -5.12499,0 -8.62499,-1.95833 -3.45834,-2 -5.70833,-6.16666 v 20.20832 h 7.24999 v 4.45833 h -22.29165 v -4.45833 h 7.37499 z"
         style="-inkscape-font-specification:'serif, Normal'"
         id="path78661" />
      <path
         d="m 397.3831,443.65411 h 7.24999 v 4.41666 h -22.29166 v -4.41666 h 7.375 v -55.99998 h -7.375 v -4.41667 h 15.04167 z"
         style="-inkscape-font-specification:'serif, Normal'"
         id="path78663" />
      <path
         d="m 453.42474,426.73745 h -33.04165 v 0.33333 q 0,8.95833 3.375,13.54166 3.37499,4.54166 9.95832,4.54166 5.04167,0 8.25,-2.62499 3.25,-2.66667 4.54167,-7.875 h 6.16666 q -1.83333,7.29166 -6.79166,10.95833 -4.91667,3.66666 -12.95833,3.66666 -9.70833,0 -15.625,-6.37499 -5.87499,-6.41667 -5.87499,-17 0,-10.49999 5.79166,-16.91666 5.79167,-6.41666 15.20833,-6.41666 10.04166,0 15.41666,6.20833 5.375,6.16666 5.58333,17.95833 z m -9.04166,-4.41667 q -0.25,-7.75 -3.29167,-11.66666 -3,-3.95833 -8.66666,-3.95833 -5.29167,0 -8.33333,3.95833 -3.04167,3.95833 -3.70833,11.66666 z"
         style="-inkscape-font-specification:'serif, Normal'"
         id="path78665" />
    </g>
  </g>
</svg>
